<svg width="256" height="256" viewBox="0 0 16 16" fill="none" xmlns="http://www.w3.org/2000/svg" shape-rendering="crispEdges">
  <rect width="16" height="16" fill="#F8FAFC"/>
  <rect x="7" y="1" width="2" height="1" fill="#FDE68A"/>
  <rect x="6" y="2" width="4" height="1" fill="#FBBF24"/>
  <rect x="7" y="3" width="2" height="1" fill="#FDE68A"/>
  <rect x="5" y="4" width="6" height="1" fill="#F59E0B"/>
  <rect x="4" y="5" width="8" height="1" fill="#FBBF24"/>
  <rect x="1" y="6" width="4" height="1" fill="#FDE68A"/>
  <rect x="5" y="6" width="6" height="1" fill="#F59E0B"/>
  <rect x="11" y="6" width="4" height="1" fill="#FDE68A"/>
  <rect x="2" y="7" width="12" height="1" fill="#F59E0B"/>
  <rect x="1" y="8" width="14" height="1" fill="#FBBF24"/>
  <rect x="2" y="9" width="12" height="1" fill="#F59E0B"/>
  <rect x="4" y="10" width="8" height="1" fill="#FDE68A"/>
  <rect x="5" y="11" width="6" height="1" fill="#F59E0B"/>
  <rect x="6" y="12" width="4" height="1" fill="#FBBF24"/>
  <rect x="7" y="13" width="2" height="1" fill="#FDE68A"/>
  <rect x="7" y="14" width="2" height="1" fill="#F59E0B"/>
</svg>
